STARTFONT 2.1
FONT -Monotype-Arial-Regular-R-Normal--36-360-75-75-P-171-iso8859-2
SIZE 36 75 75
FONTBOUNDINGBOX 46 43 -8 -8

STARTPROPERTIES 24
FOUNDRY "Monotype"
FAMILY_NAME "Arial"
WEIGHT_NAME "Regular"
SLANT "R"
SETWIDTH_NAME "Normal"
ADD_STYLE_NAME ""
PIXEL_SIZE 36
POINT_SIZE 360
RESOLUTION_X 75
RESOLUTION_Y 75
SPACING "P"
AVERAGE_WIDTH 171
CHARSET_REGISTRY "iso8859"
CHARSET_ENCODING "2"
FACE_NAME "Arial ISO Latin2"
_DEC_DEVICE_FONTNAMES "PS=arial-lat2"
COPYRIGHT "Copyright (c) 1993 Monotype Typography Ltd."
CAP_HEIGHT 30
X_HEIGHT 22
WEIGHT 10
QUAD_WIDTH 23
DEFAULT_CHAR 160
FONT_DESCENT 8
FONT_ASCENT 35
ENDPROPERTIES

CHARS 191

STARTCHAR space
ENCODING 32
SWIDTH 333 0
DWIDTH 13 0
BBX 0 0 0 0
BITMAP
ENDCHAR

STARTCHAR exclam
ENCODING 33
SWIDTH 278 0
DWIDTH 11 0
BBX 4 28 3 0
BITMAP
F0
F0
F0
F0
F0
F0
F0
F0
F0
F0
F0
F0
F0
F0
F0
60
60
60
60
60
60
00
00
00
F0
F0
F0
F0
ENDCHAR

STARTCHAR quotedbl
ENCODING 34
SWIDTH 355 0
DWIDTH 13 0
BBX 10 10 2 18
BITMAP
F3C0
F3C0
F3C0
F3C0
F3C0
F3C0
F3C0
6180
6180
6180
ENDCHAR

STARTCHAR numbersign
ENCODING 35
SWIDTH 556 0
DWIDTH 21 0
BBX 21 29 0 -1
BITMAP
00E0E0
01C0E0
01C0E0
01C0C0
01C1C0
0181C0
0381C0
0381C0
FFFFF8
FFFFF8
FBFFF8
070380
070380
070300
070700
060700
0E0700
0E0700
FFFFF8
FFFFF8
EFFFF8
1C0E00
1C0E00
1C0C00
1C1C00
181C00
381C00
381C00
381C00
ENDCHAR

STARTCHAR dollar
ENCODING 36
SWIDTH 556 0
DWIDTH 21 0
BBX 18 34 1 -4
BITMAP
00C000
00C000
07F800
1FFE00
1FFF00
3CCF80
78C780
70C380
70C3C0
70C000
70C000
78C000
7CC000
3EC000
1FE000
0FFC00
03FF00
00FF80
00CF80
00C3C0
00C3C0
00C1C0
F0C1C0
F0C1C0
70C3C0
78C3C0
7CC780
3EDF00
1FFE00
0FFC00
00C000
00C000
00C000
00C000
ENDCHAR

STARTCHAR percent
ENCODING 37
SWIDTH 889 0
DWIDTH 34 0
BBX 30 29 2 -1
BITMAP
1F800700
3FC00E00
79E00E00
70E01C00
E0701C00
E0703800
E0703800
E0707000
E0706000
E070E000
70E0C000
79E1C000
3FC18000
1F838000
000307E0
00070FF0
00061E78
000E1C38
000C381C
001C381C
0018381C
0038381C
0070381C
0070381C
00E01C38
00E01E78
01C00FF0
01C007E0
03800000
ENDCHAR

STARTCHAR ampersand
ENCODING 38
SWIDTH 667 0
DWIDTH 25 0
BBX 24 28 1 0
BITMAP
00F800
03FE00
07FF00
0F8780
0F0780
0E0380
0E0380
0F0780
0F8700
079F00
03FE00
01FC00
03F000
0FF800
1F7C00
3E3C3C
7C1E3C
781F78
F00FB8
F007F0
F003F0
F001E0
7803F0
7C07F8
3E1FBC
1FFF3F
0FFE1E
03F00C
ENDCHAR

STARTCHAR quoteright
ENCODING 39
SWIDTH 222 0
DWIDTH 8 0
BBX 4 9 2 19
BITMAP
F0
F0
F0
F0
30
30
60
E0
C0
ENDCHAR

STARTCHAR parenleft
ENCODING 40
SWIDTH 333 0
DWIDTH 13 0
BBX 9 36 2 -8
BITMAP
0380
0300
0700
0E00
0C00
1C00
1C00
3800
3800
7000
7000
7000
F000
F000
E000
E000
E000
E000
E000
E000
E000
E000
F000
F000
7000
7000
7000
3800
3800
3C00
1C00
0C00
0E00
0600
0700
0380
ENDCHAR

STARTCHAR parenright
ENCODING 41
SWIDTH 333 0
DWIDTH 13 0
BBX 9 36 1 -8
BITMAP
E000
7000
3000
3800
1C00
1C00
0E00
0E00
0E00
0700
0700
0700
0780
0380
0380
0380
0380
0380
0380
0380
0380
0380
0380
0780
0700
0700
0700
0E00
0E00
0E00
1C00
1C00
3800
3000
7000
E000
ENDCHAR

STARTCHAR asterisk
ENCODING 42
SWIDTH 389 0
DWIDTH 15 0
BBX 13 12 1 16
BITMAP
0700
0700
0700
4710
7EF0
FFF8
1740
0F80
1DC0
3DE0
38E0
1040
ENDCHAR

STARTCHAR plus
ENCODING 43
SWIDTH 584 0
DWIDTH 22 0
BBX 17 17 3 5
BITMAP
01C000
01C000
01C000
01C000
01C000
01C000
01C000
FFFF80
FFFF80
FFFF80
01C000
01C000
01C000
01C000
01C000
01C000
01C000
ENDCHAR

STARTCHAR comma
ENCODING 44
SWIDTH 278 0
DWIDTH 11 0
BBX 4 9 3 -5
BITMAP
F0
F0
F0
F0
30
30
70
E0
C0
ENDCHAR

STARTCHAR minus
ENCODING 45
SWIDTH 584 0
DWIDTH 22 0
BBX 18 3 2 12
BITMAP
FFFFC0
FFFFC0
FFFFC0
ENDCHAR

STARTCHAR period
ENCODING 46
SWIDTH 278 0
DWIDTH 11 0
BBX 4 4 3 0
BITMAP
F0
F0
F0
F0
ENDCHAR

STARTCHAR slash
ENCODING 47
SWIDTH 278 0
DWIDTH 11 0
BBX 11 28 0 0
BITMAP
00E0
00C0
01C0
01C0
0180
0380
0380
0380
0300
0700
0700
0600
0E00
0E00
0E00
0C00
1C00
1C00
1800
3800
3800
3800
3000
7000
7000
7000
6000
E000
ENDCHAR

STARTCHAR zero
ENCODING 48
SWIDTH 556 0
DWIDTH 21 0
BBX 17 28 2 0
BITMAP
03E000
0FF800
1FFC00
3C1E00
380F00
780F00
700700
F00780
F00780
E00380
E00380
E00380
E00380
E00380
E00380
E00380
E00380
E00380
F00380
F00780
700780
700700
780F00
380E00
3C1E00
1FFC00
0FF800
03E000
ENDCHAR

STARTCHAR one
ENCODING 49
SWIDTH 556 0
DWIDTH 21 0
BBX 10 27 4 0
BITMAP
01C0
01C0
03C0
07C0
1FC0
3FC0
FDC0
F1C0
E1C0
81C0
01C0
01C0
01C0
01C0
01C0
01C0
01C0
01C0
01C0
01C0
01C0
01C0
01C0
01C0
01C0
01C0
01C0
ENDCHAR

STARTCHAR two
ENCODING 50
SWIDTH 556 0
DWIDTH 21 0
BBX 18 28 1 0
BITMAP
01F800
0FFE00
1FFF00
3E0F80
3C03C0
3803C0
7801C0
7001C0
1001C0
0001C0
0003C0
000380
000780
000F00
001E00
003C00
007800
00F000
03E000
07C000
0F8000
1F0000
3E0000
3C0000
780000
7FFFC0
FFFFC0
FFFFC0
ENDCHAR

STARTCHAR three
ENCODING 51
SWIDTH 556 0
DWIDTH 21 0
BBX 18 28 2 0
BITMAP
07E000
1FF800
3FFC00
7C1E00
780F00
700700
F00700
300700
000700
000F00
001E00
00FC00
01F800
03FE00
021F00
000780
000780
0003C0
0003C0
0003C0
F003C0
F003C0
700780
780780
3C1F00
3FFE00
0FFC00
03E000
ENDCHAR

STARTCHAR four
ENCODING 52
SWIDTH 556 0
DWIDTH 21 0
BBX 19 28 1 0
BITMAP
000E00
001E00
001E00
003E00
007E00
007E00
00EE00
01CE00
01CE00
038E00
070E00
0F0E00
0E0E00
1C0E00
3C0E00
380E00
700E00
E00E00
FFFFE0
FFFFE0
FFFFE0
000E00
000E00
000E00
000E00
000E00
000E00
000E00
ENDCHAR

STARTCHAR five
ENCODING 53
SWIDTH 556 0
DWIDTH 21 0
BBX 18 28 2 0
BITMAP
1FFF80
1FFF80
3FFF80
3C0000
380000
380000
380000
380000
780000
73F000
7FFC00
7FFE00
7C1F00
F00F80
300780
0003C0
0003C0
0003C0
0003C0
0003C0
E003C0
F00380
F00780
780F00
7C1F00
3FFE00
0FF800
03E000
ENDCHAR

STARTCHAR six
ENCODING 54
SWIDTH 556 0
DWIDTH 21 0
BBX 18 28 1 0
BITMAP
01F800
07FE00
0FFF00
1E0F80
3C0780
380380
7803C0
700000
700000
F00000
F1F800
F7FE00
F7FF00
EE0F80
FC0780
F803C0
F003C0
F001C0
F001C0
F001C0
7001C0
7803C0
7803C0
3C0780
1E0F00
1FFF00
07FC00
01F000
ENDCHAR

STARTCHAR seven
ENCODING 55
SWIDTH 556 0
DWIDTH 21 0
BBX 18 27 2 0
BITMAP
FFFFC0
FFFFC0
FFFFC0
000780
000F00
001E00
001C00
003C00
007800
007800
00F000
00F000
01E000
01E000
03C000
03C000
038000
078000
078000
078000
070000
0F0000
0F0000
0F0000
0E0000
0E0000
0E0000
ENDCHAR

STARTCHAR eight
ENCODING 56
SWIDTH 556 0
DWIDTH 21 0
BBX 17 28 2 0
BITMAP
03E000
0FF800
1FFC00
3C1E00
780F00
700700
700700
700700
780700
780F00
3C1E00
17F400
0FF800
3FFC00
7C1F00
780F00
F00780
E00380
E00380
E00380
E00380
F00380
F00780
780F00
3C1F00
3FFE00
0FFC00
03E000
ENDCHAR

STARTCHAR nine
ENCODING 57
SWIDTH 556 0
DWIDTH 21 0
BBX 18 28 2 0
BITMAP
03E000
0FF800
3FFE00
3C1F00
780700
F00780
F00380
E00380
E003C0
E003C0
E003C0
F003C0
F007C0
7807C0
7C1DC0
3FFDC0
1FFBC0
07E3C0
0003C0
000380
000380
F00780
700700
780F00
7C1E00
3FFC00
1FF800
07E000
ENDCHAR

STARTCHAR colon
ENCODING 58
SWIDTH 278 0
DWIDTH 11 0
BBX 4 20 3 0
BITMAP
F0
F0
F0
F0
00
00
00
00
00
00
00
00
00
00
00
00
F0
F0
F0
F0
ENDCHAR

STARTCHAR semicolon
ENCODING 59
SWIDTH 278 0
DWIDTH 11 0
BBX 4 25 3 -5
BITMAP
F0
F0
F0
F0
00
00
00
00
00
00
00
00
00
00
00
00
F0
F0
F0
F0
30
30
70
E0
C0
ENDCHAR

STARTCHAR less
ENCODING 60
SWIDTH 584 0
DWIDTH 22 0
BBX 18 19 2 4
BITMAP
000040
0001C0
0007C0
001FC0
00FF00
03FC00
0FE000
7F8000
FC0000
F00000
FC0000
7F8000
1FE000
03F800
00FF00
003FC0
0007C0
0001C0
000040
ENDCHAR

STARTCHAR equal
ENCODING 61
SWIDTH 584 0
DWIDTH 22 0
BBX 18 11 2 8
BITMAP
FFFFC0
FFFFC0
FFFFC0
000000
000000
000000
000000
000000
FFFFC0
FFFFC0
FFFFC0
ENDCHAR

STARTCHAR greater
ENCODING 62
SWIDTH 584 0
DWIDTH 22 0
BBX 18 19 2 4
BITMAP
800000
E00000
F80000
FF0000
3FC000
0FF000
01FE00
007F80
000FC0
0003C0
000FC0
003F80
01FE00
07F800
3FC000
FF0000
FC0000
E00000
800000
ENDCHAR

STARTCHAR question
ENCODING 63
SWIDTH 556 0
DWIDTH 21 0
BBX 18 28 1 0
BITMAP
03F000
0FFE00
1FFF00
3C0F80
780780
7803C0
7001C0
F001C0
0001C0
0003C0
0003C0
000F80
001F00
003E00
007C00
007800
00F000
00E000
01E000
01E000
01E000
000000
000000
000000
01E000
01E000
01E000
01E000
ENDCHAR

STARTCHAR at
ENCODING 64
SWIDTH 1015 0
DWIDTH 39 0
BBX 35 36 2 -8
BITMAP
0003FC0000
003FFF8000
007FFFE000
01FC03F800
03E0007C00
0780003E00
0F00000E00
0E00000700
1C03E00780
1C0FF3C380
381FFB8380
303C1F81C0
70780F81C0
70700781C0
60F00781C0
E0E00701C0
E1E00701C0
E1E00701C0
E1C0070180
E1C00F0380
E1C00E0380
E1C01E0700
E1E01E0F00
60E03E1E00
70F07E7C00
707FEFF800
783FCFF000
380F07C000
1C000001E0
1E000003C0
0F00000F80
07C0001F00
03F800FC00
00FFFFF800
003FFFE000
0003FE0000
ENDCHAR

STARTCHAR A
ENCODING 65
SWIDTH 667 0
DWIDTH 25 0
BBX 25 28 0 0
BITMAP
003C0000
003E0000
007E0000
00770000
00770000
00F70000
00E78000
00E38000
01E3C000
01C1C000
03C1C000
03C1E000
0380E000
0780F000
0700F000
07007000
0FFFF800
0FFFF800
1FFFFC00
1E003C00
1C001C00
3C001E00
3C001E00
38000F00
78000F00
78000F00
F0000780
F0000780
ENDCHAR

STARTCHAR B
ENCODING 66
SWIDTH 667 0
DWIDTH 25 0
BBX 21 28 2 0
BITMAP
FFFE00
FFFF80
FFFFC0
F007E0
F001E0
F000F0
F000F0
F000F0
F000F0
F000E0
F001E0
F007C0
FFFF00
FFFF80
FFFFE0
F003F0
F000F0
F00078
F00078
F00078
F00078
F00078
F000F8
F000F0
F003F0
FFFFE0
FFFFC0
FFFF00
ENDCHAR

STARTCHAR C
ENCODING 67
SWIDTH 722 0
DWIDTH 27 0
BBX 24 28 2 0
BITMAP
007F80
03FFE0
07FFF8
0FC0FC
1F003C
3E001E
3C001E
78000F
780008
700000
F00000
F00000
F00000
F00000
F00000
F00000
F00000
F00000
78000C
78000F
78000F
3C001E
3E003E
1F007C
0FC1F8
07FFF0
03FFE0
007F80
ENDCHAR

STARTCHAR D
ENCODING 68
SWIDTH 722 0
DWIDTH 27 0
BBX 23 28 3 0
BITMAP
FFFF00
FFFFC0
FFFFE0
F007F0
F000F8
F00078
F0007C
F0003C
F0003C
F0001E
F0001E
F0001E
F0001E
F0001E
F0001E
F0001E
F0001E
F0001E
F0001C
F0003C
F0003C
F0007C
F00078
F001F0
F007F0
FFFFE0
FFFF80
FFFE00
ENDCHAR

STARTCHAR E
ENCODING 69
SWIDTH 667 0
DWIDTH 25 0
BBX 21 28 3 0
BITMAP
FFFFF0
FFFFF0
FFFFF0
F00000
F00000
F00000
F00000
F00000
F00000
F00000
F00000
F00000
FFFFE0
FFFFE0
FFFFE0
F00000
F00000
F00000
F00000
F00000
F00000
F00000
F00000
F00000
F00000
FFFFF8
FFFFF8
FFFFF8
ENDCHAR

STARTCHAR F
ENCODING 70
SWIDTH 611 0
DWIDTH 23 0
BBX 19 28 3 0
BITMAP
FFFFE0
FFFFE0
FFFFE0
F00000
F00000
F00000
F00000
F00000
F00000
F00000
F00000
F00000
FFFF80
FFFF80
FFFF80
F00000
F00000
F00000
F00000
F00000
F00000
F00000
F00000
F00000
F00000
F00000
F00000
F00000
ENDCHAR

STARTCHAR G
ENCODING 71
SWIDTH 778 0
DWIDTH 30 0
BBX 25 28 2 0
BITMAP
007FC000
01FFF000
07FFFC00
0FE07E00
1F001E00
3E000F00
3C000700
78000780
78000600
78000000
F0000000
F0000000
F0000000
F0000000
F003FF80
F003FF80
F003FF80
F0000380
78000380
78000380
78000380
3C000380
3E000780
1F801F80
0FE07F00
07FFFE00
01FFF800
003FC000
ENDCHAR

STARTCHAR H
ENCODING 72
SWIDTH 722 0
DWIDTH 27 0
BBX 22 28 3 0
BITMAP
F0003C
F0003C
F0003C
F0003C
F0003C
F0003C
F0003C
F0003C
F0003C
F0003C
F0003C
F0003C
FFFFFC
FFFFFC
FFFFFC
F0003C
F0003C
F0003C
F0003C
F0003C
F0003C
F0003C
F0003C
F0003C
F0003C
F0003C
F0003C
F0003C
ENDCHAR

STARTCHAR I
ENCODING 73
SWIDTH 278 0
DWIDTH 11 0
BBX 4 28 3 0
BITMAP
F0
F0
F0
F0
F0
F0
F0
F0
F0
F0
F0
F0
F0
F0
F0
F0
F0
F0
F0
F0
F0
F0
F0
F0
F0
F0
F0
F0
ENDCHAR

STARTCHAR J
ENCODING 74
SWIDTH 500 0
DWIDTH 19 0
BBX 15 28 1 0
BITMAP
001E
001E
001E
001E
001E
001E
001E
001E
001E
001E
001E
001E
001E
001E
001E
001E
001E
001E
001E
201E
E01E
E01E
F01E
F03C
787C
7FF8
3FF0
0FC0
ENDCHAR

STARTCHAR K
ENCODING 75
SWIDTH 667 0
DWIDTH 25 0
BBX 23 28 3 0
BITMAP
F0007C
F000F8
F001F0
F003E0
F007C0
F00F80
F01F00
F03E00
F07C00
F0F800
F1F000
F3E000
F7F000
F7F000
FF7800
FE7C00
FC3E00
F81E00
F01F00
F00F80
F00780
F003C0
F003E0
F001F0
F000F0
F000F8
F0007C
F0003E
ENDCHAR

STARTCHAR L
ENCODING 76
SWIDTH 556 0
DWIDTH 21 0
BBX 17 28 3 0
BITMAP
F00000
F00000
F00000
F00000
F00000
F00000
F00000
F00000
F00000
F00000
F00000
F00000
F00000
F00000
F00000
F00000
F00000
F00000
F00000
F00000
F00000
F00000
F00000
F00000
F00000
FFFF80
FFFF80
FFFF80
ENDCHAR

STARTCHAR M
ENCODING 77
SWIDTH 833 0
DWIDTH 32 0
BBX 25 28 3 0
BITMAP
F8000F80
FC000F80
FC000F80
FC001F80
EE001F80
EE001D80
EE003B80
EF003B80
E7003B80
E7007380
E7007380
E3807380
E380E380
E380E380
E1C0E380
E1C1C380
E1C1C380
E0E1C380
E0E38380
E0E38380
E0F38380
E0770380
E0770380
E07B0380
E03E0380
E03E0380
E03E0380
E01C0380
ENDCHAR

STARTCHAR N
ENCODING 78
SWIDTH 722 0
DWIDTH 27 0
BBX 21 28 3 0
BITMAP
F00038
F00038
F80038
FC0038
FC0038
FE0038
EF0038
EF0038
E78038
E3C038
E3C038
E1E038
E1F038
E0F038
E07838
E07C38
E03C38
E01E38
E01F38
E00F38
E007B8
E007D8
E003F8
E001F8
E001F8
E000F8
E00078
E00078
ENDCHAR

STARTCHAR O
ENCODING 79
SWIDTH 778 0
DWIDTH 30 0
BBX 26 28 2 0
BITMAP
007F8000
03FFE000
07FFF800
0FC0FC00
1F003E00
3E001F00
3C000F00
78000780
78000780
70000380
700003C0
F00003C0
F00003C0
F00003C0
F00003C0
F00003C0
F00003C0
F00003C0
70000380
78000780
78000780
3C000F00
1E001F00
1F003E00
0FC0FC00
07FFF800
01FFE000
007F8000
ENDCHAR

STARTCHAR P
ENCODING 80
SWIDTH 667 0
DWIDTH 25 0
BBX 21 28 3 0
BITMAP
FFFF00
FFFFC0
FFFFE0
F003F0
F000F0
F00078
F00078
F00078
F00078
F00078
F000F8
F000F0
F003F0
FFFFE0
FFFFC0
FFFF00
F00000
F00000
F00000
F00000
F00000
F00000
F00000
F00000
F00000
F00000
F00000
F00000
ENDCHAR

STARTCHAR Q
ENCODING 81
SWIDTH 778 0
DWIDTH 30 0
BBX 26 30 2 -2
BITMAP
007F8000
01FFE000
07FFF800
0FC0FC00
1F003E00
3E001F00
3C000F00
78000780
78000780
70000380
F00003C0
F00003C0
F00003C0
F00003C0
F00003C0
F00003C0
F00003C0
F00003C0
78000380
78000780
78020780
3C078F00
3E07EF00
1F017E00
0FC0FC00
07FFFE00
01FFEF80
007F87C0
000001C0
00000040
ENDCHAR

STARTCHAR R
ENCODING 82
SWIDTH 722 0
DWIDTH 27 0
BBX 24 28 3 0
BITMAP
FFFF80
FFFFE0
FFFFF0
F000F8
F00078
F0003C
F0003C
F0003C
F0003C
F0003C
F00078
F001F8
FFFFF0
FFFFC0
FFFD00
F03E00
F00F80
F007C0
F003C0
F003E0
F001F0
F000F0
F000F8
F00078
F0003C
F0003E
F0001E
F0001F
ENDCHAR

STARTCHAR S
ENCODING 83
SWIDTH 667 0
DWIDTH 25 0
BBX 21 28 2 0
BITMAP
03FE00
0FFF80
1FFFC0
3E07E0
7C01F0
7800F0
700070
700070
780000
780000
3E0000
3FC000
1FFE00
07FF80
00FFE0
001FF0
0001F0
000078
000078
E00038
F00038
F00038
F80078
7C00F0
3F03F0
1FFFE0
0FFF80
01FE00
ENDCHAR

STARTCHAR T
ENCODING 84
SWIDTH 611 0
DWIDTH 23 0
BBX 22 28 1 0
BITMAP
FFFFFC
FFFFFC
FFFFFC
007800
007800
007800
007800
007800
007800
007800
007800
007800
007800
007800
007800
007800
007800
007800
007800
007800
007800
007800
007800
007800
007800
007800
007800
007800
ENDCHAR

STARTCHAR U
ENCODING 85
SWIDTH 722 0
DWIDTH 27 0
BBX 22 28 3 0
BITMAP
F0003C
F0003C
F0003C
F0003C
F0003C
F0003C
F0003C
F0003C
F0003C
F0003C
F0003C
F0003C
F0003C
F0003C
F0003C
F0003C
F0003C
F0003C
F0003C
F0003C
70003C
780078
780078
3C00F0
3F03F0
1FFFE0
0FFFC0
03FF00
ENDCHAR

STARTCHAR V
ENCODING 86
SWIDTH 667 0
DWIDTH 25 0
BBX 25 28 0 0
BITMAP
F0000780
78000780
78000F00
78000F00
3C000E00
3C001E00
1C001E00
1E001C00
1E003C00
0E003800
0F003800
0F007800
07007000
0780F000
0380F000
0380E000
03C1E000
01C1C000
01E1C000
00E3C000
00E38000
00F38000
00770000
00770000
007B0000
003E0000
003E0000
001E0000
ENDCHAR

STARTCHAR W
ENCODING 87
SWIDTH 944 0
DWIDTH 36 0
BBX 35 28 0 0
BITMAP
F000F000E0
7001F801E0
7801F801E0
7801F801C0
3801D801C0
3803BC03C0
3C039C03C0
3C039C0380
1C079C0380
1C071E0380
1C070E0780
1E070E0700
0E0E0F0700
0E0E070700
0E0E070E00
0F0E070E00
071C078E00
071C038E00
071C039C00
07BC039C00
03B803DC00
03B801DC00
03B801F800
03F801D800
01F000F800
01F000F800
01F000F000
00E000F000
ENDCHAR

STARTCHAR X
ENCODING 88
SWIDTH 667 0
DWIDTH 25 0
BBX 25 28 0 0
BITMAP
7C000F00
3E001E00
1E001E00
0F003C00
0F807800
0780F000
03C0F000
01E1E000
01F3C000
00F7C000
007B8000
007F0000
003E0000
001E0000
003F0000
007F0000
00F78000
00F3C000
01E3E000
03C1E000
07C0F000
0780F800
0F007800
1F003C00
1E003E00
3C001E00
78000F00
F8000F80
ENDCHAR

STARTCHAR Y
ENCODING 89
SWIDTH 667 0
DWIDTH 25 0
BBX 25 28 0 0
BITMAP
F0000F80
78000F00
7C001E00
3C003C00
1E003C00
1F007800
0F00F000
0780F000
0781E000
03C3C000
01E3C000
01E78000
00F70000
00FF0000
007E0000
003C0000
003C0000
003C0000
003C0000
003C0000
003C0000
003C0000
003C0000
003C0000
003C0000
003C0000
003C0000
003C0000
ENDCHAR

STARTCHAR Z
ENCODING 90
SWIDTH 611 0
DWIDTH 23 0
BBX 21 28 1 0
BITMAP
7FFFF8
7FFFF8
7FFFF8
0000F8
0001F0
0003E0
0003C0
000780
000F80
001F00
001E00
003C00
007800
00F800
01F000
01E000
03C000
07C000
0F8000
0F0000
1E0000
3C0000
7C0000
780000
F00000
FFFFF8
FFFFF8
FFFFF8
ENDCHAR

STARTCHAR bracketleft
ENCODING 91
SWIDTH 278 0
DWIDTH 11 0
BBX 7 36 3 -8
BITMAP
FE
FE
FE
E0
E0
E0
E0
E0
E0
E0
E0
E0
E0
E0
E0
E0
E0
E0
E0
E0
E0
E0
E0
E0
E0
E0
E0
E0
E0
E0
E0
E0
E0
FE
FE
FE
ENDCHAR

STARTCHAR backslash
ENCODING 92
SWIDTH 278 0
DWIDTH 11 0
BBX 11 28 0 0
BITMAP
E000
E000
6000
7000
7000
7000
3000
3800
3800
1800
1C00
1C00
1C00
0C00
0E00
0E00
0600
0700
0700
0700
0300
0380
0380
0180
01C0
01C0
01C0
00E0
ENDCHAR

STARTCHAR bracketright
ENCODING 93
SWIDTH 278 0
DWIDTH 11 0
BBX 7 36 1 -8
BITMAP
FE
FE
FE
0E
0E
0E
0E
0E
0E
0E
0E
0E
0E
0E
0E
0E
0E
0E
0E
0E
0E
0E
0E
0E
0E
0E
0E
0E
0E
0E
0E
0E
0E
FE
FE
FE
ENDCHAR

STARTCHAR asciicircum
ENCODING 94
SWIDTH 469 0
DWIDTH 18 0
BBX 16 15 1 13
BITMAP
0380
03C0
03C0
07E0
0760
0EF0
0E70
1E70
1C38
3C38
381C
381C
781E
700E
F00F
ENDCHAR

STARTCHAR underscore
ENCODING 95
SWIDTH 556 0
DWIDTH 21 0
BBX 21 2 0 -5
BITMAP
FFFFF8
FFFFF8
ENDCHAR

STARTCHAR quoteleft
ENCODING 96
SWIDTH 222 0
DWIDTH 8 0
BBX 4 9 2 19
BITMAP
30
70
60
C0
C0
F0
F0
F0
F0
ENDCHAR

STARTCHAR a
ENCODING 97
SWIDTH 556 0
DWIDTH 21 0
BBX 18 20 1 0
BITMAP
03F800
0FFE00
1FFF00
3C0F80
780780
700380
000380
000380
007F80
0FFF80
3FF380
7C0380
700380
F00380
F00780
F00F80
781F80
7FFB80
3FF3C0
0F81C0
ENDCHAR

STARTCHAR b
ENCODING 98
SWIDTH 556 0
DWIDTH 21 0
BBX 17 28 3 0
BITMAP
E00000
E00000
E00000
E00000
E00000
E00000
E00000
E00000
E3F000
EFFC00
EFFE00
FC1F00
F80F00
F00780
F00780
E00380
E00380
E00380
E00380
E00380
E00780
E00780
F00700
F80F00
FC1E00
EFFC00
EFF800
E3E000
ENDCHAR

STARTCHAR c
ENCODING 99
SWIDTH 500 0
DWIDTH 19 0
BBX 17 20 2 0
BITMAP
03F000
0FFC00
3FFE00
3C1F00
780F00
700780
F00400
E00000
E00000
E00000
E00000
E00000
F00200
F00780
700780
780F00
3C1F00
1FFE00
0FF800
03E000
ENDCHAR

STARTCHAR d
ENCODING 100
SWIDTH 556 0
DWIDTH 21 0
BBX 17 28 1 0
BITMAP
000380
000380
000380
000380
000380
000380
000380
000380
07E380
1FFB80
3FFD80
3C1F80
780F80
700780
F00380
F00380
E00380
E00380
E00380
E00380
F00380
F00380
700780
780F80
3C1F80
1FFD80
0FFB80
03E380
ENDCHAR

STARTCHAR e
ENCODING 101
SWIDTH 556 0
DWIDTH 21 0
BBX 19 20 1 0
BITMAP
01F000
0FFE00
1FFF00
3E0F80
3C0380
7803C0
7001C0
7001C0
7FFFE0
FFFFE0
FFFFE0
700000
700000
700100
7801E0
3C03C0
3E0780
1FFF00
07FE00
01F800
ENDCHAR

STARTCHAR f
ENCODING 102
SWIDTH 278 0
DWIDTH 11 0
BBX 11 28 0 0
BITMAP
07E0
0FE0
1FE0
1E00
1C00
1C00
1C00
1C00
FFC0
FFC0
FFC0
1C00
1C00
1C00
1C00
1C00
1C00
1C00
1C00
1C00
1C00
1C00
1C00
1C00
1C00
1C00
1C00
1C00
ENDCHAR

STARTCHAR g
ENCODING 103
SWIDTH 556 0
DWIDTH 21 0
BBX 17 28 2 -8
BITMAP
03E380
0FFB80
3FFD80
3C1F80
780F80
700780
F00780
E00380
E00380
E00380
E00380
E00380
F00380
F00780
700780
780F80
3C1F80
1FFD80
0FF380
03E380
000380
800780
F00780
700F00
781F00
3FFE00
1FFC00
07E000
ENDCHAR

STARTCHAR h
ENCODING 104
SWIDTH 556 0
DWIDTH 21 0
BBX 16 28 3 0
BITMAP
E000
E000
E000
E000
E000
E000
E000
E000
E3F0
EFFC
EFFE
FC1F
F80F
F007
E007
E007
E007
E007
E007
E007
E007
E007
E007
E007
E007
E007
E007
E007
ENDCHAR

STARTCHAR i
ENCODING 105
SWIDTH 222 0
DWIDTH 8 0
BBX 3 28 3 0
BITMAP
E0
E0
E0
E0
00
00
00
00
E0
E0
E0
E0
E0
E0
E0
E0
E0
E0
E0
E0
E0
E0
E0
E0
E0
E0
E0
E0
ENDCHAR

STARTCHAR j
ENCODING 106
SWIDTH 222 0
DWIDTH 8 0
BBX 7 36 -1 -8
BITMAP
0E
0E
0E
0E
00
00
00
00
0E
0E
0E
0E
0E
0E
0E
0E
0E
0E
0E
0E
0E
0E
0E
0E
0E
0E
0E
0E
0E
0E
0E
0E
1E
FE
FC
F8
ENDCHAR

STARTCHAR k
ENCODING 107
SWIDTH 500 0
DWIDTH 19 0
BBX 16 28 3 0
BITMAP
E000
E000
E000
E000
E000
E000
E000
E000
E01E
E03C
E078
E0F0
E1E0
E3C0
E780
EF00
FF80
FF80
FBC0
F1E0
E1E0
E0F0
E078
E078
E03C
E03E
E01E
E00F
ENDCHAR

STARTCHAR l
ENCODING 108
SWIDTH 222 0
DWIDTH 8 0
BBX 3 28 3 0
BITMAP
E0
E0
E0
E0
E0
E0
E0
E0
E0
E0
E0
E0
E0
E0
E0
E0
E0
E0
E0
E0
E0
E0
E0
E0
E0
E0
E0
E0
ENDCHAR

STARTCHAR m
ENCODING 109
SWIDTH 833 0
DWIDTH 32 0
BBX 26 20 3 0
BITMAP
E3E03E00
EFF8FF00
EFFDFF80
FC3F83C0
F01F03C0
F01E01C0
E01E01C0
E01E01C0
E01E01C0
E01E01C0
E01E01C0
E01E01C0
E01E01C0
E01E01C0
E01E01C0
E01E01C0
E01E01C0
E01E01C0
E01E01C0
E01E01C0
ENDCHAR

STARTCHAR n
ENCODING 110
SWIDTH 556 0
DWIDTH 21 0
BBX 16 20 3 0
BITMAP
E3F0
E7FC
FFFE
FC1F
F80F
F007
E007
E007
E007
E007
E007
E007
E007
E007
E007
E007
E007
E007
E007
E007
ENDCHAR

STARTCHAR o
ENCODING 111
SWIDTH 556 0
DWIDTH 21 0
BBX 18 20 2 0
BITMAP
03F000
0FFC00
1FFE00
3C0F00
780780
7003C0
F003C0
E001C0
E001C0
E001C0
E001C0
E001C0
F001C0
F003C0
700380
780780
3C0F00
1FFE00
0FFC00
03F000
ENDCHAR

STARTCHAR p
ENCODING 112
SWIDTH 556 0
DWIDTH 21 0
BBX 17 27 3 -7
BITMAP
E3E000
E7F800
EFFE00
FC1E00
F80F00
F00780
F00780
E00380
E00380
E00380
E00380
E00380
E00380
F00780
F00700
F80F00
FC1E00
EFFC00
EFF800
E1E000
E00000
E00000
E00000
E00000
E00000
E00000
E00000
ENDCHAR

STARTCHAR q
ENCODING 113
SWIDTH 556 0
DWIDTH 21 0
BBX 17 27 2 -7
BITMAP
03C380
0FF380
3FFB80
3C1F80
780F80
700780
F00780
F00380
E00380
E00380
E00380
E00380
F00380
F00780
700780
780F80
3C1F80
1FFD80
0FFB80
03E380
000380
000380
000380
000380
000380
000380
000380
ENDCHAR

STARTCHAR r
ENCODING 114
SWIDTH 333 0
DWIDTH 13 0
BBX 11 20 3 0
BITMAP
E7E0
EFC0
EFC0
FC40
F000
F000
F000
E000
E000
E000
E000
E000
E000
E000
E000
E000
E000
E000
E000
E000
ENDCHAR

STARTCHAR s
ENCODING 115
SWIDTH 500 0
DWIDTH 19 0
BBX 16 20 1 0
BITMAP
07E0
1FF8
3FFC
781E
700E
700E
7800
7E00
3FE0
1FF8
07FE
007F
000F
3007
F007
700F
7C1F
3FFE
1FFC
03E0
ENDCHAR

STARTCHAR t
ENCODING 116
SWIDTH 278 0
DWIDTH 11 0
BBX 10 27 0 0
BITMAP
0400
0C00
1C00
1C00
1C00
1C00
1C00
FFC0
FFC0
FFC0
1C00
1C00
1C00
1C00
1C00
1C00
1C00
1C00
1C00
1C00
1C00
1C00
1C00
1E00
1FC0
0FC0
07C0
ENDCHAR

STARTCHAR u
ENCODING 117
SWIDTH 556 0
DWIDTH 21 0
BBX 16 20 3 0
BITMAP
E007
E007
E007
E007
E007
E007
E007
E007
E007
E007
E007
E007
E007
E00F
F00F
F01F
783F
7FF7
3FE7
0F87
ENDCHAR

STARTCHAR v
ENCODING 118
SWIDTH 500 0
DWIDTH 19 0
BBX 18 20 1 0
BITMAP
E003C0
F00380
F00780
700700
780700
380F00
380E00
3C1E00
1C1C00
1C1C00
1E3C00
0E3800
0F3800
077800
077000
077000
03E000
03E000
03E000
01C000
ENDCHAR

STARTCHAR w
ENCODING 119
SWIDTH 722 0
DWIDTH 27 0
BBX 27 20 0 0
BITMAP
F00F00E0
700F00E0
701F01E0
781F01C0
381F81C0
381B83C0
383B8380
3C3B8380
1C39C380
1C31C700
1E71C700
0E71C700
0E70EE00
0E60EE00
0760EE00
0760FC00
07E07C00
03C07C00
03C07C00
03C03800
ENDCHAR

STARTCHAR x
ENCODING 120
SWIDTH 500 0
DWIDTH 19 0
BBX 19 20 0 0
BITMAP
7803C0
3C0780
3E0F00
1E0F00
0F1E00
07BC00
07BC00
03F800
01F000
01F000
01F000
03F800
07BC00
07BC00
0F1E00
1E0F00
1E0F00
3C0780
7803C0
F803E0
ENDCHAR

STARTCHAR y
ENCODING 121
SWIDTH 500 0
DWIDTH 19 0
BBX 18 28 1 -8
BITMAP
E003C0
F00380
700780
700700
780700
380F00
3C0E00
3C0E00
1C1E00
1E1C00
0E1C00
0E3800
0F3800
077800
077000
07B000
03F000
03E000
01E000
01E000
01C000
01C000
038000
038000
0F8000
7F0000
7E0000
7C0000
ENDCHAR

STARTCHAR z
ENCODING 122
SWIDTH 500 0
DWIDTH 19 0
BBX 17 20 1 0
BITMAP
7FFF80
7FFF80
7FFF00
000F00
001E00
003C00
007800
00F000
01E000
03E000
03C000
078000
0F0000
1E0000
3C0000
780000
F00000
FFFF80
FFFF80
FFFF80
ENDCHAR

STARTCHAR braceleft
ENCODING 123
SWIDTH 334 0
DWIDTH 13 0
BBX 11 36 1 -8
BITMAP
01E0
07E0
07E0
0F00
0E00
0E00
0E00
0E00
0E00
0E00
0E00
0E00
0E00
0E00
1C00
1C00
F800
E000
F000
F800
1C00
1E00
0E00
0E00
0E00
0E00
0E00
0E00
0E00
0E00
0E00
0E00
0F00
07E0
07E0
01E0
ENDCHAR

STARTCHAR bar
ENCODING 124
SWIDTH 260 0
DWIDTH 10 0
BBX 3 36 3 -8
BITMAP
E0
E0
E0
E0
E0
E0
E0
E0
E0
E0
E0
E0
E0
E0
E0
E0
E0
E0
E0
E0
E0
E0
E0
E0
E0
E0
E0
E0
E0
E0
E0
E0
E0
E0
E0
E0
ENDCHAR

STARTCHAR braceright
ENCODING 125
SWIDTH 334 0
DWIDTH 13 0
BBX 11 36 1 -8
BITMAP
F000
FC00
FC00
1E00
0E00
0E00
0E00
0E00
0E00
0E00
0E00
0E00
0E00
0E00
0700
0700
03E0
00E0
01E0
03E0
0700
0700
0E00
0E00
0E00
0E00
0E00
0E00
0E00
0E00
0E00
0E00
1E00
FC00
FC00
F000
ENDCHAR

STARTCHAR asciitilde
ENCODING 126
SWIDTH 584 0
DWIDTH 22 0
BBX 19 6 2 11
BITMAP
1E0020
7FC060
FFF1E0
FFFFE0
C0FFC0
803F80
ENDCHAR

STARTCHAR space
ENCODING 160
SWIDTH 333 0
DWIDTH 14 0
BBX 0 0 0 0
BITMAP
ENDCHAR

STARTCHAR Aogonek
ENCODING 161
SWIDTH 667 0
DWIDTH 25 0
BBX 29 36 0 -8
BITMAP
003E0000
003E0000
003E0000
00770000
00770000
00778000
00F78000
00E38000
01E3C000
01E1C000
01C1E000
03C1E000
03C0E000
0380F000
0780F000
07807800
0F007800
0FFFF800
0FFFFC00
1FFFFC00
1E003E00
1C001E00
3C001E00
3C000F00
78000F00
78000F80
70000780
F00007C0
00000700
00000600
00000600
00000600
00000700
00000798
000003F8
000003F0
ENDCHAR

STARTCHAR breve
ENCODING 162
SWIDTH 333 0
DWIDTH 13 0
BBX 11 5 1 23
BITMAP
C0E0
E0E0
71C0
7FC0
1F00
ENDCHAR

STARTCHAR Lslash
ENCODING 163
SWIDTH 556 0
DWIDTH 21 0
BBX 19 28 1 0
BITMAP
3C0000
3C0000
3C0000
3C0000
3C0000
3C0000
3C1000
3C3000
3C7000
3DE000
3DC000
3F8000
3F0000
3E0000
3C0000
7C0000
FC0000
DC0000
BC0000
BC0000
3C0000
3C0000
3C0000
3C0000
3C0000
3FFFE0
3FFFE0
3FFFE0
ENDCHAR

STARTCHAR currency
ENCODING 164
SWIDTH 556 0
DWIDTH 21 0
BBX 18 18 2 4
BITMAP
600180
F3F3C0
FFFFC0
7FFF80
3E1F00
3C0700
780780
700380
700380
700380
700380
780780
3C0F00
3E1F00
7FFF80
FFFFC0
F3F3C0
600180
ENDCHAR

STARTCHAR Lcaron
ENCODING 165
SWIDTH 556 0
DWIDTH 21 0
BBX 17 28 3 0
BITMAP
F1E000
F1E000
F1E000
F1E000
F06000
F06000
F06000
F0C000
F18000
F08000
F00000
F00000
F00000
F00000
F00000
F00000
F00000
F00000
F00000
F00000
F00000
F00000
F00000
F00000
F00000
FFFF80
FFFF80
FFFF80
ENDCHAR

STARTCHAR Sacute
ENCODING 166
SWIDTH 667 0
DWIDTH 25 0
BBX 21 35 2 0
BITMAP
001E00
003C00
003800
007800
00F000
000000
000000
03FE00
0FFF80
1FFFC0
3E07E0
7C01F0
7800F0
700070
700070
780000
780000
3E0000
3FC000
1FFE00
07FF80
00FFE0
001FF0
0001F0
000078
000078
E00038
F00038
F00038
F80078
7C00F0
3F03F0
1FFFE0
0FFF80
01FE00
ENDCHAR

STARTCHAR section
ENCODING 167
SWIDTH 556 0
DWIDTH 21 0
BBX 18 36 1 -8
BITMAP
03F000
0FFC00
1FFE00
3E1F00
3C0F00
380700
380780
3C0000
1E0000
1F0000
0FC000
3FE000
79F800
70FC00
E03F00
E01F80
E00780
F003C0
7801C0
7C01C0
3F01C0
1F83C0
07E780
03FF00
00FC00
003E00
001F00
000700
000780
780380
780380
3C0780
3E0F00
1FFF00
0FFE00
01F000
ENDCHAR

STARTCHAR dieresis
ENCODING 168
SWIDTH 333 0
DWIDTH 13 0
BBX 10 4 1 24
BITMAP
E1C0
E1C0
E1C0
E1C0
ENDCHAR

STARTCHAR Scaron
ENCODING 169
SWIDTH 667 0
DWIDTH 25 0
BBX 21 35 2 0
BITMAP
078780
03CF00
01DE00
01FC00
00F800
000000
000000
03FE00
0FFF80
1FFFC0
3E07E0
7C01F0
7800F0
700070
700070
780000
780000
3E0000
3FC000
1FFE00
07FF80
00FFE0
001FF0
0001F0
000078
000078
E00038
F00038
F00038
F80078
7C00F0
3F03F0
1FFFE0
0FFF80
01FE00
ENDCHAR

STARTCHAR Scommaaccent
ENCODING 170
SWIDTH 667 0
DWIDTH 25 0
BBX 21 36 2 -8
BITMAP
03FE00
0FFF80
1FFFC0
3E03E0
7C01F0
7800F0
700070
700070
780000
780000
3E0000
3FE000
1FFE00
07FF80
00FFE0
000FF0
0001F0
000078
000078
E00038
F00038
F00038
F80078
7C00F0
3F03F0
1FFFE0
0FFFC0
03FF00
000000
000000
003800
003800
003800
001800
003800
003000
ENDCHAR

STARTCHAR Tcaron
ENCODING 171
SWIDTH 611 0
DWIDTH 23 0
BBX 22 35 1 0
BITMAP
07C780
01CF00
00EE00
00FC00
007800
000000
000000
FFFFFC
FFFFFC
FFFFFC
007800
007800
007800
007800
007800
007800
007800
007800
007800
007800
007800
007800
007800
007800
007800
007800
007800
007800
007800
007800
007800
007800
007800
007800
007800
ENDCHAR

STARTCHAR Zacute
ENCODING 172
SWIDTH 611 0
DWIDTH 23 0
BBX 21 35 1 0
BITMAP
003E00
003C00
007800
007000
00E000
000000
000000
7FFFF8
7FFFF8
7FFFF8
0000F8
0001F0
0003E0
0003C0
000780
000F80
001F00
001E00
003C00
007800
00F800
01F000
01E000
03C000
07C000
0F8000
0F0000
1E0000
3C0000
7C0000
780000
F00000
FFFFF8
FFFFF8
FFFFF8
ENDCHAR

STARTCHAR hyphen
ENCODING 173
SWIDTH 333 0
DWIDTH 13 0
BBX 11 3 1 8
BITMAP
FFE0
FFE0
FFE0
ENDCHAR

STARTCHAR Zcaron
ENCODING 174
SWIDTH 611 0
DWIDTH 23 0
BBX 21 35 1 0
BITMAP
078F80
03CE00
01EC00
00FC00
007800
000000
000000
7FFFF8
7FFFF8
7FFFF8
0000F8
0001F0
0003E0
0003C0
000780
000F80
001F00
001E00
003C00
007800
00F800
01F000
01E000
03C000
07C000
0F8000
0F0000
1E0000
3C0000
7C0000
780000
F00000
FFFFF8
FFFFF8
FFFFF8
ENDCHAR

STARTCHAR Zdotaccent
ENCODING 175
SWIDTH 611 0
DWIDTH 23 0
BBX 22 34 0 0
BITMAP
007800
007800
007800
007800
000000
000000
3FFFF8
3FFFF8
3FFFF8
000078
0000F0
0001E0
0003E0
0007C0
000780
000F00
001F00
003E00
003C00
007800
00F000
01F000
01E000
03C000
078000
0F8000
1F0000
1E0000
3C0000
780000
F00000
FFFFFC
FFFFFC
FFFFFC
ENDCHAR

STARTCHAR degree
ENCODING 176
SWIDTH 400 0
DWIDTH 15 0
BBX 10 10 3 18
BITMAP
1E00
7F80
6180
C0C0
C0C0
C0C0
E0C0
7180
3F80
1E00
ENDCHAR

STARTCHAR aogonek
ENCODING 177
SWIDTH 556 0
DWIDTH 21 0
BBX 22 28 1 -8
BITMAP
03F800
0FFE00
1FFF00
3C0F80
780780
700380
000380
000380
007F80
0FFF80
3FF380
7C0380
700380
F00380
F00780
F00F80
781F80
7FFB80
3FF1C0
0FC3C0
000380
000300
000300
000300
000380
0003CC
0001FC
0000F8
ENDCHAR

STARTCHAR ogonek
ENCODING 178
SWIDTH 333 0
DWIDTH 13 0
BBX 8 8 4 -8
BITMAP
E0
C0
C0
C0
E0
F3
FF
7E
ENDCHAR

STARTCHAR lslash
ENCODING 179
SWIDTH 222 0
DWIDTH 8 0
BBX 9 28 0 0
BITMAP
1C00
1C00
1C00
1C00
1C00
1C00
1C00
1C00
1C00
1C80
1D80
1F80
1F00
1E00
3C00
7C00
FC00
DC00
9C00
1C00
1C00
1C00
1C00
1C00
1C00
1C00
1C00
1C00
ENDCHAR

STARTCHAR acute
ENCODING 180
SWIDTH 333 0
DWIDTH 13 0
BBX 7 5 4 22
BITMAP
3E
3C
78
70
E0
ENDCHAR

STARTCHAR lcaron
ENCODING 181
SWIDTH 292 0
DWIDTH 11 0
BBX 8 28 3 0
BITMAP
E7
E7
E7
E3
E3
E3
E6
E6
E0
E0
E0
E0
E0
E0
E0
E0
E0
E0
E0
E0
E0
E0
E0
E0
E0
E0
E0
E0
ENDCHAR

STARTCHAR sacute
ENCODING 182
SWIDTH 500 0
DWIDTH 19 0
BBX 16 27 1 0
BITMAP
00F8
00F0
01E0
01C0
0380
0000
0000
07E0
1FF8
3FFC
781E
700E
700E
7800
7E00
3FE0
1FF8
07FE
007F
000F
3007
F007
700F
7C1F
3FFE
1FFC
03E0
ENDCHAR

STARTCHAR caron
ENCODING 183
SWIDTH 333 0
DWIDTH 13 0
BBX 12 5 1 22
BITMAP
F1F0
7BC0
3D80
1F00
0F00
ENDCHAR

STARTCHAR commaaccent
ENCODING 184
SWIDTH 333 0
DWIDTH 13 0
BBX 3 6 5 -8
BITMAP
E0
E0
E0
60
60
C0
ENDCHAR

STARTCHAR scaron
ENCODING 185
SWIDTH 500 0
DWIDTH 19 0
BBX 16 27 1 0
BITMAP
1E3C
0F38
0770
03E0
03E0
0000
0000
07E0
1FF8
3FFC
781E
700E
700E
7800
7E00
3FE0
1FF8
07FE
007F
000F
3007
F007
700F
7C1F
3FFE
1FFC
03E0
ENDCHAR

STARTCHAR scommaaccent
ENCODING 186
SWIDTH 500 0
DWIDTH 19 0
BBX 17 28 1 -8
BITMAP
07F000
1FFC00
3FFE00
780F00
700700
700700
780000
7E0000
3FE000
1FFC00
03FF00
003F80
000780
300380
F00380
780780
7C0F00
3FFF00
1FFE00
07F800
000000
000000
01C000
01C000
01C000
00C000
01C000
018000
ENDCHAR

STARTCHAR tcaron
ENCODING 187
SWIDTH 375 0
DWIDTH 14 0
BBX 11 28 1 0
BITMAP
00E0
04E0
1CE0
1C60
1C60
1CC0
1C80
1C00
FFC0
FFC0
FFC0
1C00
1C00
1C00
1C00
1C00
1C00
1C00
1C00
1C00
1C00
1C00
1C00
1C00
1E00
1FC0
0FC0
07C0
ENDCHAR

STARTCHAR zacute
ENCODING 188
SWIDTH 500 0
DWIDTH 19 0
BBX 17 28 1 0
BITMAP
007800
00F000
00F000
01E000
01C000
038000
000000
000000
7FFF80
7FFF80
7FFF00
000F00
001E00
003C00
007800
00F000
01E000
03E000
03C000
078000
0F0000
1E0000
3C0000
780000
F00000
FFFF80
FFFF80
FFFF80
ENDCHAR

STARTCHAR hungarumlaut
ENCODING 189
SWIDTH 333 0
DWIDTH 13 0
BBX 13 5 1 22
BITMAP
3EF8
78F0
78E0
71C0
E1C0
ENDCHAR

STARTCHAR zcaron
ENCODING 190
SWIDTH 500 0
DWIDTH 19 0
BBX 17 28 1 0
BITMAP
1E1E00
0E3C00
0F3800
07B000
03E000
01E000
000000
000000
7FFF80
7FFF80
7FFF00
000F00
001E00
003C00
007800
00F000
01E000
03E000
03C000
078000
0F0000
1E0000
3C0000
780000
F00000
FFFF80
FFFF80
FFFF80
ENDCHAR

STARTCHAR zdotaccent
ENCODING 191
SWIDTH 500 0
DWIDTH 19 0
BBX 18 26 0 0
BITMAP
01E000
01E000
01E000
01E000
000000
000000
7FFF80
7FFF80
7FF780
000F00
001E00
003C00
003C00
007800
00F000
01E000
03C000
078000
0F8000
1F0000
1E0000
3C0000
700000
FFFFC0
FFFFC0
FFFFC0
ENDCHAR

STARTCHAR Racute
ENCODING 192
SWIDTH 722 0
DWIDTH 27 0
BBX 24 35 3 0
BITMAP
000F80
000F00
001E00
001C00
003800
000000
000000
FFFF80
FFFFE0
FFFFF0
F000F8
F00078
F0003C
F0003C
F0003C
F0003C
F0003C
F00078
F001F8
FFFFF0
FFFFC0
FFFD00
F03E00
F00F80
F007C0
F003C0
F003E0
F001F0
F000F0
F000F8
F00078
F0003C
F0003E
F0001E
F0001F
ENDCHAR

STARTCHAR Aacute
ENCODING 193
SWIDTH 667 0
DWIDTH 25 0
BBX 25 35 0 0
BITMAP
00078000
000F0000
000E0000
001E0000
003C0000
00000000
00000000
003C0000
003E0000
007E0000
00770000
00770000
00F70000
00E78000
00E38000
01E3C000
01C1C000
03C1C000
03C1E000
0380E000
0780F000
0700F000
07007000
0FFFF800
0FFFF800
1FFFFC00
1E003C00
1C001C00
3C001E00
3C001E00
38000F00
78000F00
78000F00
F0000780
F0000780
ENDCHAR

STARTCHAR Acircumflex
ENCODING 194
SWIDTH 667 0
DWIDTH 25 0
BBX 25 35 0 0
BITMAP
003E0000
003F0000
00770000
00F38000
01E3E000
00000000
00000000
003C0000
003E0000
007E0000
00770000
00770000
00F70000
00E78000
00E38000
01E3C000
01C1C000
03C1C000
03C1E000
0380E000
0780F000
0700F000
07007000
0FFFF800
0FFFF800
1FFFFC00
1E003C00
1C001C00
3C001E00
3C001E00
38000F00
78000F00
78000F00
F0000780
F0000780
ENDCHAR

STARTCHAR Abreve
ENCODING 195
SWIDTH 667 0
DWIDTH 25 0
BBX 25 35 0 0
BITMAP
01C0C000
01C1C000
00E3C000
007F8000
003E0000
00000000
00000000
003C0000
003E0000
007E0000
00770000
00770000
00F70000
00E78000
00E38000
01E3C000
01C1C000
03C1C000
03C1E000
0380E000
0780F000
0700F000
07007000
0FFFF800
0FFFF800
1FFFFC00
1E003C00
1C001C00
3C001E00
3C001E00
38000F00
78000F00
78000F00
F0000780
F0000780
ENDCHAR

STARTCHAR Adieresis
ENCODING 196
SWIDTH 667 0
DWIDTH 25 0
BBX 26 35 0 0
BITMAP
00E1C000
00E1C000
00E1C000
00E1C000
00000000
00000000
00000000
001E0000
003E0000
003F0000
00770000
00770000
00778000
00F38000
00E3C000
00E3C000
01E1C000
01C1E000
03C0E000
0380F000
0380F000
07807000
07007800
0FFFF800
0FFFFC00
0FFFFC00
1E001C00
1E001E00
1C001E00
3C000F00
3C000F00
78000F00
78000780
78000780
F00003C0
ENDCHAR

STARTCHAR Lacute
ENCODING 197
SWIDTH 556 0
DWIDTH 21 0
BBX 17 35 3 0
BITMAP
007800
00F000
00E000
01E000
01C000
000000
000000
F00000
F00000
F00000
F00000
F00000
F00000
F00000
F00000
F00000
F00000
F00000
F00000
F00000
F00000
F00000
F00000
F00000
F00000
F00000
F00000
F00000
F00000
F00000
F00000
F00000
FFFF80
FFFF80
FFFF80
ENDCHAR

STARTCHAR Cacute
ENCODING 198
SWIDTH 722 0
DWIDTH 27 0
BBX 24 35 2 0
BITMAP
000F80
000F00
001E00
001C00
003800
000000
000000
007F80
03FFE0
07FFF8
0FC0FC
1F003C
3E001E
3C001E
78000F
780008
700000
F00000
F00000
F00000
F00000
F00000
F00000
F00000
F00000
78000C
78000F
78000F
3C001E
3E003E
1F007C
0FC1F8
07FFF0
03FFE0
007F80
ENDCHAR

STARTCHAR Ccedilla
ENCODING 199
SWIDTH 722 0
DWIDTH 27 0
BBX 24 36 2 -8
BITMAP
007F80
03FFE0
07FFF0
0FC0F8
1F007C
3E003E
3C001E
78000F
780008
700000
F00000
F00000
F00000
F00000
F00000
F00000
F00000
F00000
70000C
78000F
78000F
3C001E
3E003E
1F007C
0FC1F8
07FFF0
03FFE0
00FF80
001800
003C00
003F00
000700
000700
000F00
00FE00
00FC00
ENDCHAR

STARTCHAR Ccaron
ENCODING 200
SWIDTH 722 0
DWIDTH 27 0
BBX 24 35 2 0
BITMAP
01E3C0
00E380
00F780
007F00
003E00
000000
000000
007F80
03FFE0
07FFF8
0FC0FC
1F003C
3E001E
3C001E
78000F
780008
700000
F00000
F00000
F00000
F00000
F00000
F00000
F00000
F00000
78000C
78000F
78000F
3C001E
3E003E
1F007C
0FC1F8
07FFF0
03FFE0
007F80
ENDCHAR

STARTCHAR Eacute
ENCODING 201
SWIDTH 667 0
DWIDTH 25 0
BBX 21 35 3 0
BITMAP
003E00
003C00
007800
007000
00E000
000000
000000
FFFFF0
FFFFF0
FFFFF0
F00000
F00000
F00000
F00000
F00000
F00000
F00000
F00000
F00000
FFFFE0
FFFFE0
FFFFE0
F00000
F00000
F00000
F00000
F00000
F00000
F00000
F00000
F00000
F00000
FFFFF8
FFFFF8
FFFFF8
ENDCHAR

STARTCHAR Eogonek
ENCODING 202
SWIDTH 667 0
DWIDTH 25 0
BBX 21 36 3 -8
BITMAP
FFFFF0
FFFFF0
FFFFF0
F00000
F00000
F00000
F00000
F00000
F00000
F00000
F00000
F00000
FFFFE0
FFFFE0
FFFFE0
F00000
F00000
F00000
F00000
F00000
F00000
F00000
F00000
F00000
F00000
FFFFF8
FFFFF8
FFFFF8
000700
000600
000600
000600
000700
000798
0007F8
0003F0
ENDCHAR

STARTCHAR Edieresis
ENCODING 203
SWIDTH 667 0
DWIDTH 25 0
BBX 20 35 3 0
BITMAP
070E00
070E00
070E00
070E00
000000
000000
000000
FFFFF0
FFFFF0
FFFFF0
F00000
F00000
F00000
F00000
F00000
F00000
F00000
F00000
F00000
FFFFE0
FFFFE0
FFFFE0
F00000
F00000
F00000
F00000
F00000
F00000
F00000
F00000
F00000
F00000
FFFFF0
FFFFF0
FFFFF0
ENDCHAR

STARTCHAR Ecaron
ENCODING 204
SWIDTH 667 0
DWIDTH 25 0
BBX 21 35 3 0
BITMAP
078F80
03CE00
01DC00
00FC00
00F800
000000
000000
FFFFF0
FFFFF0
FFFFF0
F00000
F00000
F00000
F00000
F00000
F00000
F00000
F00000
F00000
FFFFE0
FFFFE0
FFFFE0
F00000
F00000
F00000
F00000
F00000
F00000
F00000
F00000
F00000
F00000
FFFFF8
FFFFF8
FFFFF8
ENDCHAR

STARTCHAR Iacute
ENCODING 205
SWIDTH 278 0
DWIDTH 11 0
BBX 7 35 3 0
BITMAP
3E
38
78
70
E0
00
00
F0
F0
F0
F0
F0
F0
F0
F0
F0
F0
F0
F0
F0
F0
F0
F0
F0
F0
F0
F0
F0
F0
F0
F0
F0
F0
F0
F0
ENDCHAR

STARTCHAR Icircumflex
ENCODING 206
SWIDTH 278 0
DWIDTH 11 0
BBX 12 35 -1 0
BITMAP
0F00
1F80
3DC0
79E0
F0F0
0000
0000
0F00
0F00
0F00
0F00
0F00
0F00
0F00
0F00
0F00
0F00
0F00
0F00
0F00
0F00
0F00
0F00
0F00
0F00
0F00
0F00
0F00
0F00
0F00
0F00
0F00
0F00
0F00
0F00
ENDCHAR

STARTCHAR Dcaron
ENCODING 207
SWIDTH 722 0
DWIDTH 27 0
BBX 23 35 3 0
BITMAP
03C7C0
01E700
00F700
007E00
003C00
000000
000000
FFFF00
FFFFC0
FFFFE0
F007F0
F000F8
F00078
F0007C
F0003C
F0003C
F0001E
F0001E
F0001E
F0001E
F0001E
F0001E
F0001E
F0001E
F0001E
F0001C
F0003C
F0003C
F0007C
F00078
F001F0
F007F0
FFFFE0
FFFF80
FFFE00
ENDCHAR

STARTCHAR Dcroat
ENCODING 208
SWIDTH 722 0
DWIDTH 27 0
BBX 26 28 0 0
BITMAP
1FFFE000
1FFFF800
1FFFFC00
1E00FE00
1E001E00
1E000F00
1E000F80
1E000780
1E000780
1E0003C0
1E0003C0
1E0003C0
1E0003C0
FFFC03C0
FFFC03C0
FFFC03C0
1E0003C0
1E0003C0
1E0003C0
1E000780
1E000780
1E000F80
1E000F00
1E001F00
1E00FE00
1FFFFC00
1FFFF000
1FFFC000
ENDCHAR

STARTCHAR Nacute
ENCODING 209
SWIDTH 722 0
DWIDTH 27 0
BBX 21 35 3 0
BITMAP
003E00
003C00
003800
007000
00F000
000000
000000
F00038
F00038
F80038
FC0038
FC0038
FE0038
EF0038
EF0038
E78038
E3C038
E3C038
E1E038
E1F038
E0F038
E07838
E07C38
E03C38
E01E38
E01F38
E00F38
E007B8
E007D8
E003F8
E001F8
E001F8
E000F8
E00078
E00078
ENDCHAR

STARTCHAR Ncaron
ENCODING 210
SWIDTH 722 0
DWIDTH 27 0
BBX 21 35 3 0
BITMAP
078780
03CF00
01DE00
00FC00
00F800
000000
000000
F00038
F00038
F80038
FC0038
FC0038
FE0038
EF0038
EF0038
E78038
E3C038
E3C038
E1E038
E1F038
E0F038
E07838
E07C38
E03C38
E01E38
E01F38
E00F38
E007B8
E007D8
E003F8
E001F8
E001F8
E000F8
E00078
E00078
ENDCHAR

STARTCHAR Oacute
ENCODING 211
SWIDTH 778 0
DWIDTH 30 0
BBX 26 35 2 0
BITMAP
0007C000
00078000
000F0000
000E0000
001C0000
00000000
00000000
007F8000
03FFE000
07FFF800
0FC0FC00
1F003E00
3E001F00
3C000F00
78000780
78000780
70000380
700003C0
F00003C0
F00003C0
F00003C0
F00003C0
F00003C0
F00003C0
F00003C0
70000380
78000780
78000780
3C000F00
1E001F00
1F003E00
0FC0FC00
07FFF800
01FFE000
007F8000
ENDCHAR

STARTCHAR Ocircumflex
ENCODING 212
SWIDTH 778 0
DWIDTH 30 0
BBX 26 35 2 0
BITMAP
001E0000
003F0000
007B0000
00738000
01F3E000
00000000
00000000
007F8000
03FFE000
07FFF800
0FC0FC00
1F003E00
3E001F00
3C000F00
78000780
78000780
70000380
700003C0
F00003C0
F00003C0
F00003C0
F00003C0
F00003C0
F00003C0
F00003C0
70000380
78000780
78000780
3C000F00
1E001F00
1F003E00
0FC0FC00
07FFF800
01FFE000
007F8000
ENDCHAR

STARTCHAR Ohungarumlaut
ENCODING 213
SWIDTH 778 0
DWIDTH 30 0
BBX 26 35 2 0
BITMAP
003CF800
0078F000
0078E000
0071C000
00E3C000
00000000
00000000
007F8000
03FFE000
07FFF800
0FC0FC00
1F003E00
3E001F00
3C000F00
78000780
78000780
70000380
700003C0
F00003C0
F00003C0
F00003C0
F00003C0
F00003C0
F00003C0
F00003C0
70000380
78000780
78000780
3C000F00
1E001F00
1F003E00
0FC0FC00
07FFF800
01FFE000
007F8000
ENDCHAR

STARTCHAR Odieresis
ENCODING 214
SWIDTH 778 0
DWIDTH 30 0
BBX 26 35 2 0
BITMAP
00E1C000
00E1C000
00E1C000
00E1C000
00000000
00000000
00000000
007F8000
03FFE000
07FFF800
0FC0FC00
1F003E00
3E001F00
3C000F00
78000780
78000780
70000380
700003C0
F00003C0
F00003C0
F00003C0
F00003C0
F00003C0
F00003C0
F00003C0
70000380
78000780
78000780
3C000F00
1E001F00
1F003E00
0FC0FC00
07FFF800
01FFE000
007F8000
ENDCHAR

STARTCHAR multiply
ENCODING 215
SWIDTH 584 0
DWIDTH 22 0
BBX 16 17 3 5
BITMAP
2002
6006
F00F
781E
3C3C
1E78
0FF0
07E0
03C0
07E0
0FF0
1E78
3C3C
781E
F00F
6006
2002
ENDCHAR

STARTCHAR Rcaron
ENCODING 216
SWIDTH 722 0
DWIDTH 27 0
BBX 24 35 3 0
BITMAP
01E3C0
00E780
007700
007E00
003E00
000000
000000
FFFF80
FFFFE0
FFFFF0
F000F8
F00078
F0003C
F0003C
F0003C
F0003C
F0003C
F00078
F001F8
FFFFF0
FFFFC0
FFFD00
F03E00
F00F80
F007C0
F003C0
F003E0
F001F0
F000F0
F000F8
F00078
F0003C
F0003E
F0001E
F0001F
ENDCHAR

STARTCHAR Uring
ENCODING 217
SWIDTH 722 0
DWIDTH 27 0
BBX 22 35 3 0
BITMAP
007800
00CC00
008400
008400
00CC00
007800
000000
F0003C
F0003C
F0003C
F0003C
F0003C
F0003C
F0003C
F0003C
F0003C
F0003C
F0003C
F0003C
F0003C
F0003C
F0003C
F0003C
F0003C
F0003C
F0003C
F0003C
70003C
780078
780078
3C00F0
3F03F0
1FFFE0
0FFFC0
01FE00
ENDCHAR

STARTCHAR Uacute
ENCODING 218
SWIDTH 722 0
DWIDTH 27 0
BBX 22 35 3 0
BITMAP
001F00
001E00
003C00
003800
007000
000000
000000
F0003C
F0003C
F0003C
F0003C
F0003C
F0003C
F0003C
F0003C
F0003C
F0003C
F0003C
F0003C
F0003C
F0003C
F0003C
F0003C
F0003C
F0003C
F0003C
F0003C
70003C
780078
780078
3C00F0
3F03F0
1FFFE0
0FFFC0
03FF00
ENDCHAR

STARTCHAR Uhungarumlaut
ENCODING 219
SWIDTH 722 0
DWIDTH 27 0
BBX 22 35 3 0
BITMAP
00F3E0
01E3C0
01C780
03C700
038F00
000000
000000
F0003C
F0003C
F0003C
F0003C
F0003C
F0003C
F0003C
F0003C
F0003C
F0003C
F0003C
F0003C
F0003C
F0003C
F0003C
F0003C
F0003C
F0003C
F0003C
F0003C
70003C
780078
780078
3C00F0
3F03F0
1FFFE0
0FFFC0
03FF00
ENDCHAR

STARTCHAR Udieresis
ENCODING 220
SWIDTH 722 0
DWIDTH 27 0
BBX 22 35 3 0
BITMAP
038700
038700
038700
038700
000000
000000
000000
F0003C
F0003C
F0003C
F0003C
F0003C
F0003C
F0003C
F0003C
F0003C
F0003C
F0003C
F0003C
F0003C
F0003C
F0003C
F0003C
F0003C
F0003C
F0003C
F0003C
70003C
780078
780078
3C00F0
3F03F0
1FFFE0
0FFFC0
03FF00
ENDCHAR

STARTCHAR Yacute
ENCODING 221
SWIDTH 667 0
DWIDTH 25 0
BBX 25 35 0 0
BITMAP
000F8000
000F0000
001E0000
001C0000
00380000
00000000
00000000
F0000F80
78000F00
7C001E00
3C003C00
1E003C00
1F007800
0F00F000
0780F000
0781E000
03C3C000
01E3C000
01E78000
00F70000
00FF0000
007E0000
003C0000
003C0000
003C0000
003C0000
003C0000
003C0000
003C0000
003C0000
003C0000
003C0000
003C0000
003C0000
003C0000
ENDCHAR

STARTCHAR Tcommaaccent
ENCODING 222
SWIDTH 611 0
DWIDTH 23 0
BBX 22 36 1 -8
BITMAP
FFFFFC
FFFFFC
FFFFFC
007800
007800
007800
007800
007800
007800
007800
007800
007800
007800
007800
007800
007800
007800
007800
007800
007800
007800
007800
007800
007800
007800
007800
007800
007800
000000
000000
007000
007000
007000
003000
003000
006000
ENDCHAR

STARTCHAR germandbls
ENCODING 223
SWIDTH 611 0
DWIDTH 23 0
BBX 19 28 3 0
BITMAP
07E000
1FF800
3FFC00
783E00
701E00
F00E00
F00E00
E01E00
E01C00
E03C00
E03800
E07800
E07000
E07000
E07800
E03C00
E03F00
E00F80
E007C0
E003E0
E001E0
E000E0
E080E0
E3C1E0
E3E3E0
E1FFC0
E0FF80
E03E00
ENDCHAR

STARTCHAR racute
ENCODING 224
SWIDTH 333 0
DWIDTH 13 0
BBX 11 27 3 0
BITMAP
07C0
0700
0F00
0E00
1C00
0000
0000
E7E0
EFC0
EFC0
FC40
F000
F000
F000
E000
E000
E000
E000
E000
E000
E000
E000
E000
E000
E000
E000
E000
ENDCHAR

STARTCHAR aacute
ENCODING 225
SWIDTH 556 0
DWIDTH 21 0
BBX 18 27 1 0
BITMAP
007C00
007800
00F000
00E000
01C000
000000
000000
03F800
0FFE00
1FFF00
3C0F80
780780
700380
000380
000380
007F80
0FFF80
3FF380
7C0380
700380
F00380
F00780
F00F80
781F80
7FFB80
3FF3C0
0F81C0
ENDCHAR

STARTCHAR acircumflex
ENCODING 226
SWIDTH 556 0
DWIDTH 21 0
BBX 18 27 1 0
BITMAP
01E000
03F000
07B800
073C00
1F1E00
000000
000000
03F800
0FFE00
1FFF00
3C0F80
780780
700380
000380
000380
007F80
0FFF80
3FF380
7C0380
700380
F00380
F00780
F00F80
781F80
7FFB80
3FF3C0
0F81C0
ENDCHAR

STARTCHAR abreve
ENCODING 227
SWIDTH 556 0
DWIDTH 21 0
BBX 18 27 1 0
BITMAP
0C0E00
0E0C00
0F1C00
07F800
03F000
000000
000000
03F800
0FFE00
1FFF00
3C0F80
780780
700380
000380
000380
007F80
0FFF80
3FF380
7C0380
700380
F00380
F00780
F00F80
781F80
7FFB80
3FF3C0
0F81C0
ENDCHAR

STARTCHAR adieresis
ENCODING 228
SWIDTH 556 0
DWIDTH 21 0
BBX 18 28 1 0
BITMAP
0E1C00
0E1C00
0E1C00
0E1C00
000000
000000
000000
000000
07F800
1FFE00
3FFF00
3C0F80
780780
700380
000380
000380
007F80
0FFF80
3FF380
7C0380
700380
F00380
F00780
F00F80
781F80
7FFB80
3FF3C0
0F81C0
ENDCHAR

STARTCHAR lacute
ENCODING 229
SWIDTH 222 0
DWIDTH 8 0
BBX 6 34 2 0
BITMAP
3C
78
70
E0
E0
00
70
70
70
70
70
70
70
70
70
70
70
70
70
70
70
70
70
70
70
70
70
70
70
70
70
70
70
70
ENDCHAR

STARTCHAR cacute
ENCODING 230
SWIDTH 500 0
DWIDTH 19 0
BBX 17 27 2 0
BITMAP
00F800
00F000
01E000
01C000
038000
000000
000000
03F000
0FFC00
3FFE00
3C1F00
780F00
700780
F00400
E00000
E00000
E00000
E00000
E00000
F00200
F00780
700780
780F00
3C1F00
1FFE00
0FF800
03E000
ENDCHAR

STARTCHAR ccedilla
ENCODING 231
SWIDTH 500 0
DWIDTH 19 0
BBX 17 27 2 -7
BITMAP
03F000
0FFC00
3FFE00
3C1F00
780F00
700780
F00400
E00000
E00000
E00000
E00000
E00000
F00000
F00380
700780
780700
3C1F00
1FFE00
0FFC00
03E000
018000
03E000
00F000
007000
04F000
07E000
078000
ENDCHAR

STARTCHAR ccaron
ENCODING 232
SWIDTH 500 0
DWIDTH 19 0
BBX 17 27 2 0
BITMAP
1E3E00
0F3800
077800
03F000
03E000
000000
000000
03F000
0FFC00
3FFE00
3C1F00
780F00
700780
F00400
E00000
E00000
E00000
E00000
E00000
F00200
F00780
700780
780F00
3C1F00
1FFE00
0FF800
03E000
ENDCHAR

STARTCHAR eacute
ENCODING 233
SWIDTH 556 0
DWIDTH 21 0
BBX 19 27 1 0
BITMAP
003C00
007800
007000
00E000
01E000
000000
000000
01F000
0FFE00
1FFF00
3E0F80
3C0380
7803C0
7001C0
7001C0
7FFFE0
FFFFE0
FFFFE0
700000
700000
700100
7801E0
3C03C0
3E0780
1FFF00
07FE00
01F800
ENDCHAR

STARTCHAR eogonek
ENCODING 234
SWIDTH 556 0
DWIDTH 21 0
BBX 18 28 2 -8
BITMAP
03F000
0FFC00
1FFE00
3C0F00
780780
700380
F003C0
E003C0
FFFFC0
FFFFC0
FFFFC0
E00000
E00000
F00300
7003C0
780780
3C0F80
1FFF00
0FFE00
03F800
018000
018000
018000
018000
01C000
01E600
00FE00
007C00
ENDCHAR

STARTCHAR edieresis
ENCODING 235
SWIDTH 556 0
DWIDTH 21 0
BBX 18 28 2 0
BITMAP
0E1C00
0E1C00
0E1C00
0E1C00
000000
000000
000000
000000
03F800
0FFC00
1FFF00
3C0F00
780780
700380
F003C0
F001C0
FFFFC0
FFFFC0
FFFFC0
E00000
F00000
F00300
7003C0
780780
3E0F80
1FFF00
0FFE00
01F000
ENDCHAR

STARTCHAR ecaron
ENCODING 236
SWIDTH 556 0
DWIDTH 21 0
BBX 19 27 1 0
BITMAP
0F0F00
079C00
03DC00
01F800
01F000
000000
000000
01F000
0FFE00
1FFF00
3E0F80
3C0380
7803C0
7001C0
7001C0
7FFFE0
FFFFE0
FFFFE0
700000
700000
700100
7801E0
3C03C0
3E0780
1FFF00
07FE00
01F800
ENDCHAR

STARTCHAR iacute
ENCODING 237
SWIDTH 278 0
DWIDTH 11 0
BBX 7 28 3 0
BITMAP
1E
3C
3C
78
70
E0
00
00
70
70
70
70
70
70
70
70
70
70
70
70
70
70
70
70
70
70
70
70
ENDCHAR

STARTCHAR icircumflex
ENCODING 238
SWIDTH 278 0
DWIDTH 11 0
BBX 11 28 0 0
BITMAP
0E00
1F00
3F80
7BC0
F1E0
F1E0
0000
0000
0E00
0E00
0E00
0E00
0E00
0E00
0E00
0E00
0E00
0E00
0E00
0E00
0E00
0E00
0E00
0E00
0E00
0E00
0E00
0E00
ENDCHAR

STARTCHAR dcaron
ENCODING 239
SWIDTH 615 0
DWIDTH 23 0
BBX 22 28 1 0
BITMAP
00039C
00039C
00039C
00039C
00038C
00038C
00038C
000398
07E390
1FFB80
3FFD80
7C1F80
780F80
700780
F00380
F00380
E00380
E00380
E00380
E00380
F00380
F00380
700780
780F80
3C1F80
1FFD80
0FFB80
03E380
ENDCHAR

STARTCHAR dcroat
ENCODING 240
SWIDTH 556 0
DWIDTH 21 0
BBX 20 28 2 0
BITMAP
000380
000380
01FFF0
01FFF0
01FFF0
000380
000380
000380
07E380
1FFB80
3FFD80
7C1F80
780F80
700780
F00780
F00380
E00380
E00380
E00380
E00380
F00380
F00780
700780
780F80
3C1F80
1FFB80
0FFB80
03E380
ENDCHAR

STARTCHAR nacute
ENCODING 241
SWIDTH 556 0
DWIDTH 21 0
BBX 16 27 3 0
BITMAP
00F8
01E0
01E0
03C0
0380
0000
0000
E3F0
E7FC
FFFE
FC1F
F80F
F007
E007
E007
E007
E007
E007
E007
E007
E007
E007
E007
E007
E007
E007
E007
ENDCHAR

STARTCHAR ncaron
ENCODING 242
SWIDTH 556 0
DWIDTH 21 0
BBX 16 27 3 0
BITMAP
3E3C
0E78
0F70
07E0
03C0
0000
0000
E3F0
E7FC
FFFE
FC1F
F80F
F007
E007
E007
E007
E007
E007
E007
E007
E007
E007
E007
E007
E007
E007
E007
ENDCHAR

STARTCHAR oacute
ENCODING 243
SWIDTH 556 0
DWIDTH 21 0
BBX 18 27 2 0
BITMAP
007C00
00F000
00F000
00E000
01C000
000000
000000
03F000
0FFC00
1FFE00
3C0F00
780780
7003C0
F003C0
E001C0
E001C0
E001C0
E001C0
E001C0
F001C0
F003C0
700380
780780
3C0F00
1FFE00
0FFC00
03F000
ENDCHAR

STARTCHAR ocircumflex
ENCODING 244
SWIDTH 556 0
DWIDTH 21 0
BBX 18 27 2 0
BITMAP
01E000
03F000
07B800
0F3C00
1E1E00
000000
000000
03F000
0FFC00
1FFE00
3C0F00
780780
7003C0
F003C0
E001C0
E001C0
E001C0
E001C0
E001C0
F001C0
F003C0
700380
780780
3C0F00
1FFE00
0FFC00
03F000
ENDCHAR

STARTCHAR ohungarumlaut
ENCODING 245
SWIDTH 556 0
DWIDTH 21 0
BBX 18 27 2 0
BITMAP
03CF80
078F00
071E00
0F1C00
0E3800
000000
000000
03F000
0FFC00
1FFE00
3C0F00
780780
7003C0
F003C0
E001C0
E001C0
E001C0
E001C0
E001C0
F001C0
F003C0
700380
780780
3C0F00
1FFE00
0FFC00
03F000
ENDCHAR

STARTCHAR odieresis
ENCODING 246
SWIDTH 556 0
DWIDTH 21 0
BBX 18 28 2 0
BITMAP
0E1C00
0E1C00
0E1C00
0E1C00
000000
000000
000000
000000
03F000
0FFC00
3FFE00
3C0F00
780780
7003C0
F003C0
E001C0
E001C0
E001C0
E001C0
E001C0
F001C0
F003C0
700380
780780
3C0F00
1FFF00
0FFC00
03F000
ENDCHAR

STARTCHAR divide
ENCODING 247
SWIDTH 584 0
DWIDTH 22 0
BBX 18 15 2 6
BITMAP
01E000
01E000
01E000
01E000
000000
000000
FFFFC0
FFFFC0
FFFFC0
000000
000000
01E000
01E000
01E000
01E000
ENDCHAR

STARTCHAR rcaron
ENCODING 248
SWIDTH 333 0
DWIDTH 13 0
BBX 11 27 3 0
BITMAP
F1E0
7BC0
3B80
1F00
1E00
0000
0000
E7E0
EFC0
EFC0
FC40
F000
F000
F000
E000
E000
E000
E000
E000
E000
E000
E000
E000
E000
E000
E000
E000
ENDCHAR

STARTCHAR uring
ENCODING 249
SWIDTH 556 0
DWIDTH 21 0
BBX 16 28 3 0
BITMAP
03C0
0660
0420
0420
0660
03C0
0000
0000
E007
E007
E007
E007
E007
E007
E007
E007
E007
E007
E007
E007
E007
E00F
F00F
F01F
783F
7FF7
3FE7
0F87
ENDCHAR

STARTCHAR uacute
ENCODING 250
SWIDTH 556 0
DWIDTH 21 0
BBX 16 28 3 0
BITMAP
00F8
00F0
01E0
01C0
0380
0380
0000
0000
E007
E007
E007
E007
E007
E007
E007
E007
E007
E007
E007
E007
E007
E00F
F00F
F01F
783F
7FF7
3FE7
0F87
ENDCHAR

STARTCHAR uhungarumlaut
ENCODING 251
SWIDTH 556 0
DWIDTH 21 0
BBX 16 28 3 0
BITMAP
078F
0F9E
0F1C
1E3C
1C38
1870
0000
0000
E007
E007
E007
E007
E007
E007
E007
E007
E007
E007
E007
E007
E007
E00F
F00F
F01F
783F
7FF7
3FE7
0F87
ENDCHAR

STARTCHAR udieresis
ENCODING 252
SWIDTH 556 0
DWIDTH 21 0
BBX 16 28 3 0
BITMAP
1C38
1C38
1C38
1C38
0000
0000
0000
0000
E007
E007
E007
E007
E007
E007
E007
E007
E007
E007
E007
E007
E007
E00F
F00F
F01F
783F
7FF7
3FE7
0F87
ENDCHAR

STARTCHAR yacute
ENCODING 253
SWIDTH 500 0
DWIDTH 19 0
BBX 18 36 1 -8
BITMAP
007800
00F000
00F000
01E000
01C000
038000
000000
000000
E003C0
F00380
700780
700700
780700
380F00
3C0E00
3C0E00
1C1E00
1E1C00
0E1C00
0E3800
0F3800
077800
077000
07B000
03F000
03E000
01E000
01E000
01C000
01C000
038000
038000
0F8000
7F0000
7E0000
7C0000
ENDCHAR

STARTCHAR tcommaaccent
ENCODING 254
SWIDTH 278 0
DWIDTH 11 0
BBX 10 35 0 -8
BITMAP
0400
0C00
1C00
1C00
1C00
1C00
1C00
FFC0
FFC0
FFC0
1C00
1C00
1C00
1C00
1C00
1C00
1C00
1C00
1C00
1C00
1C00
1C00
1C00
1E00
1FC0
0FC0
07C0
0000
0000
0700
0700
0700
0300
0300
0600
ENDCHAR

STARTCHAR dotaccent
ENCODING 255
SWIDTH 333 0
DWIDTH 13 0
BBX 4 4 4 22
BITMAP
F0
F0
F0
F0
ENDCHAR
ENDFONT
